<?xml version="1.0" encoding="UTF-8" standalone="no"?>
<svg
   xmlns:dc="http://purl.org/dc/elements/1.1/"
   xmlns:cc="http://creativecommons.org/ns#"
   xmlns:rdf="http://www.w3.org/1999/02/22-rdf-syntax-ns#"
   xmlns:svg="http://www.w3.org/2000/svg"
   xmlns="http://www.w3.org/2000/svg"
   xmlns:sodipodi="http://sodipodi.sourceforge.net/DTD/sodipodi-0.dtd"
   xmlns:inkscape="http://www.inkscape.org/namespaces/inkscape"
   height="96"
   width="96"
   id="svg2"
   version="1.1"
   inkscape:version="0.91 r13725"
   sodipodi:docname="icon.svg"
   inkscape:export-filename="C:\Users\Maciej\Desktop\icon.png"
   inkscape:export-xdpi="90"
   inkscape:export-ydpi="90">
  <metadata
     id="metadata10">
    <rdf:RDF>
      <cc:Work
         rdf:about="">
        <dc:format>image/svg+xml</dc:format>
        <dc:type
           rdf:resource="http://purl.org/dc/dcmitype/StillImage" />
        <dc:title />
      </cc:Work>
    </rdf:RDF>
  </metadata>
  <defs
     id="defs8" />
  <sodipodi:namedview
     pagecolor="#ffffff"
     bordercolor="#666666"
     borderopacity="1"
     objecttolerance="10"
     gridtolerance="10"
     guidetolerance="10"
     inkscape:pageopacity="0"
     inkscape:pageshadow="2"
     inkscape:window-width="1920"
     inkscape:window-height="1017"
     id="namedview6"
     showgrid="false"
     inkscape:zoom="8.8541667"
     inkscape:cx="48"
     inkscape:cy="48"
     inkscape:window-x="1272"
     inkscape:window-y="-8"
     inkscape:window-maximized="1"
     inkscape:current-layer="svg2" />
  <rect
     style="opacity:1;fill:#ffffff;fill-opacity:1;fill-rule:evenodd;stroke:#000000;stroke-width:4.69999981;stroke-linecap:round;stroke-linejoin:round;stroke-miterlimit:4;stroke-dasharray:none;stroke-dashoffset:0;stroke-opacity:1"
     id="rect4175"
     width="88.750725"
     height="88.750725"
     x="3.6246367"
     y="3.6246364"
     rx="6.6785359"
     ry="6.6785359" />
  <path
     d="m 61.951389,62.484785 c 0,0 0,-20.886162 0,-27.438679 0,-6.552517 -6.552516,-13.105044 -13.105033,-13.105044 -4.368348,0 -4.368348,0 -4.368348,0 l 0,-8.736686 -13.105045,13.105034 13.105045,13.105044 0,-8.736696 c 0,0 2.184169,0 4.368348,0 2.184169,0 4.368337,2.184179 4.368337,4.368348 0,2.184168 0,27.438679 0,27.438679 -2.593699,1.501614 -4.368337,4.300089 -4.368337,7.508094 0,4.846126 3.89056,8.736685 8.736685,8.736685 4.846137,0 8.736696,-3.890559 8.736696,-8.736685 0,-3.208005 -1.774638,-6.00648 -4.368348,-7.508094 z m -4.368348,11.876431 c -2.388934,0 -4.368348,-1.979404 -4.368348,-4.368337 0,-2.388945 1.979414,-4.368348 4.368348,-4.368348 2.388945,0 4.368348,1.979403 4.368348,4.368348 0,2.388933 -1.979403,4.368337 -4.368348,4.368337 z M 22.636279,17.572723 c -4.846136,0 -8.736695,3.890561 -8.736695,8.736687 0,3.208005 1.774638,6.00648 4.368348,7.508095 l 0,28.599021 c -2.59371,1.501615 -4.368348,4.300089 -4.368348,7.508094 0,4.846137 3.890559,8.736697 8.736695,8.736697 4.846126,0 8.736684,-3.89056 8.736684,-8.736697 0,-3.208005 -1.774637,-6.006479 -4.368336,-7.508094 l 0,-28.599021 c 2.593699,-1.501615 4.368336,-4.30009 4.368336,-7.508095 0,-4.846126 -3.890558,-8.736687 -8.736684,-8.736687 z m 0,56.788493 c -2.388944,0 -4.368347,-1.979404 -4.368347,-4.368337 0,-2.388945 1.979403,-4.368348 4.368347,-4.368348 2.388934,0 4.368348,1.979403 4.368348,4.368348 0,2.388933 -1.979414,4.368337 -4.368348,4.368337 z m 0,-43.683458 c -2.388944,0 -4.368347,-1.979404 -4.368347,-4.368348 0,-2.388934 1.979403,-4.368348 4.368347,-4.368348 2.388934,0 4.368348,1.979414 4.368348,4.368348 0,2.388944 -1.979414,4.368348 -4.368348,4.368348 z"
     id="path4"
     inkscape:connector-curvature="0" />
  <g
     id="g4163"
     transform="matrix(0.88172032,0,0,0.88172032,-73.151459,-17.887734)">
    <g
       style="fill:#ffffff;fill-opacity:1"
       transform="matrix(0.13108333,0,0,0.13108333,119.15214,63.596669)"
       id="g4169">
      <path
         sodipodi:type="inkscape:offset"
         inkscape:radius="46.631599"
         inkscape:original="M 132.13086 81.710938 C 99.10612 81.991136 69.057851 108.3559 63.816406 140.84375 C 61.304079 159.92223 63.374184 179.29528 62.701172 198.48438 C 63.213133 219.41172 61.691096 240.44385 63.419922 261.3125 C 67.515198 294.22222 97.060934 321.74319 130.30859 322.89258 C 174.17523 323.11436 218.04874 322.92163 261.91797 322.98633 C 288.27364 344.57865 314.26536 366.65323 340.83594 387.96094 C 345.89754 392.04486 354.63711 390.6874 356.39062 383.81836 C 359.0165 372.41709 356.68958 360.42428 357.47266 348.81641 L 357.47266 322.95508 C 390.42641 322.58475 420.34728 296.23905 425.58398 263.82617 C 428.09464 244.74901 426.02359 225.37722 426.69727 206.18945 C 426.18563 185.26079 427.70613 164.22742 425.98047 143.35742 C 421.89052 110.44763 392.34656 82.927586 359.09961 81.78125 C 283.44697 81.577072 207.78573 81.719467 132.13086 81.710938 z "
         style="fill:#ffffff;fill-opacity:1"
         id="path4171"
         d="M 131.73438,35.080078 C 74.133894,35.568789 26.85242,77.178422 17.779297,133.41602 a 46.636263,46.636263 0 0 0 -0.195313,1.33984 c -3.478678,26.4169 -0.969259,47.35094 -1.486328,62.09375 a 46.636263,46.636263 0 0 0 -0.01367,2.77539 c 0.438017,17.90473 -1.264294,39.85516 0.863282,65.53711 a 46.636263,46.636263 0 0 0 0.197265,1.9082 c 7.095847,57.02237 53.571409,100.42134 111.552739,102.42578 a 46.636263,46.636263 0 0 0 1.375,0.0274 c 38.54921,0.19489 76.84381,0.0735 115.0332,0.082 21.74713,17.98595 43.66818,36.37494 66.44922,54.64648 14.70365,11.86356 31.66643,15.05923 48.5957,11.22657 16.92928,-3.83267 36.13677,-19.41592 41.42383,-40.12696 a 46.636263,46.636263 0 0 0 0.25781,-1.0664 c 4.03849,-17.53465 3.34032,-28.10146 2.67969,-34.97071 34.95415,-15.7125 60.6638,-48.16762 67.10742,-88.05078 a 46.636263,46.636263 0 0 0 0.19727,-1.35351 c 3.47638,-26.41514 0.9669,-47.34543 1.48437,-62.08399 a 46.636263,46.636263 0 0 0 0.0137,-2.77734 c -0.43782,-17.909 1.26174,-39.85701 -0.86133,-65.53321 a 46.636263,46.636263 0 0 0 -0.19726,-1.91015 C 465.16875,80.579066 418.69011,37.176958 360.70703,35.177734 a 46.636263,46.636263 0 0 0 -1.48242,-0.02734 C 283.42955,34.945828 207.72957,35.0886 132.13672,35.080078 a 46.636263,46.636263 0 0 0 -0.40234,0 z" />
    </g>
    <g
       id="g4155"
       transform="matrix(0.12597916,0,0,0.12597916,120.40113,64.80139)"
       style="fill:#000000">
      <path
         d="m 132.13477,42.269531 a 39.445217,39.445217 0 0 0 -0.33789,0.002 C 77.985833,42.728043 33.361206,81.986981 24.878906,134.5625 a 39.445217,39.445217 0 0 0 -0.166015,1.13281 c -3.329673,25.28536 -0.888574,45.97785 -1.429688,61.40625 a 39.445217,39.445217 0 0 0 -0.01172,2.34766 c 0.449419,18.37079 -1.224293,40.17937 0.841797,65.11914 a 39.445217,39.445217 0 0 0 0.167969,1.61523 c 6.633175,53.30433 50.496528,94.25436 104.66406,96.12696 a 39.445217,39.445217 0 0 0 1.16407,0.0234 c 39.37373,0.19907 78.53394,0.069 117.58984,0.084 22.42998,18.5294 44.98648,37.48462 68.36914,56.23828 0.003,0.003 0.006,0.005 0.01,0.008 12.82442,10.34255 27.70107,13.14762 42.48438,9.80078 14.78713,-3.34769 31.43596,-16.84353 36.04297,-34.89062 a 39.445217,39.445217 0 0 0 0.2207,-0.9043 c 4.53978,-19.71119 2.52809,-31.99675 2.1836,-38 35.05064,-13.95267 61.21437,-45.58704 67.50976,-84.55273 a 39.445217,39.445217 0 0 0 0.16797,-1.14453 c 3.32747,-25.28367 0.88423,-45.97384 1.42578,-61.39844 a 39.445217,39.445217 0 0 0 0.0137,-2.34961 c -0.4492,-18.37461 1.22195,-40.18208 -0.83984,-65.11719 a 39.445217,39.445217 0 0 0 -0.16602,-1.61328 C 458.49613,85.186382 414.6279,44.230995 360.45898,42.363281 a 39.445217,39.445217 0 0 0 -1.25195,-0.02344 c -75.7731,-0.204503 -151.46985,-0.06179 -227.07226,-0.07031 z"
         id="path4161"
         style="fill:#000000"
         inkscape:original="M 132.13086 81.710938 C 99.10612 81.991136 69.057851 108.3559 63.816406 140.84375 C 61.304079 159.92223 63.374184 179.29528 62.701172 198.48438 C 63.213133 219.41172 61.691096 240.44385 63.419922 261.3125 C 67.515198 294.22222 97.060934 321.74319 130.30859 322.89258 C 174.17523 323.11436 218.04874 322.92163 261.91797 322.98633 C 288.27364 344.57865 314.26536 366.65323 340.83594 387.96094 C 345.89754 392.04486 354.63711 390.6874 356.39062 383.81836 C 359.0165 372.41709 356.68958 360.42428 357.47266 348.81641 L 357.47266 322.95508 C 390.42641 322.58475 420.34728 296.23905 425.58398 263.82617 C 428.09464 244.74901 426.02359 225.37722 426.69727 206.18945 C 426.18563 185.26079 427.70613 164.22742 425.98047 143.35742 C 421.89052 110.44763 392.34656 82.927586 359.09961 81.78125 C 283.44697 81.577072 207.78573 81.719467 132.13086 81.710938 z "
         inkscape:radius="39.441273"
         sodipodi:type="inkscape:offset" />
    </g>
    <g
       style="fill:#ffffff"
       transform="matrix(0.12597916,0,0,0.12597916,120.40113,64.80139)"
       id="notification">
      <path
         style="fill:#ffffff"
         inkscape:connector-curvature="0"
         d="m 355.473,83.688 -221.537,0 c -38.08,0 -69.234,31.405 -69.234,69.796 l 0,97.706 c 0,38.373 31.154,69.796 69.234,69.796 l 128.701,0 76.781,63.483 c 8.828,7.296 16.055,3.861 16.055,-7.653 l 0,-55.83 c 38.078,0 69.225,-31.423 69.225,-69.796 l 0,-97.706 c 0,-38.39 -31.147,-69.796 -69.225,-69.796 z m -90.002,200.767 c 0,7.624 -6.225,13.846 -13.85,13.846 l -13.844,0 c -7.607,0 -13.842,-6.222 -13.842,-13.846 l 0,-27.685 c 0,-7.628 6.234,-13.846 13.842,-13.846 l 13.844,0 c 7.625,0 13.85,6.218 13.85,13.846 l 0,27.685 z m 0,-83.08 c 0,7.629 -6.225,13.846 -13.85,13.846 l -13.844,0 c -7.607,0 -13.842,-6.217 -13.842,-13.846 l 0,-83.075 c 0,-7.611 6.234,-13.846 13.842,-13.846 l 13.844,0 c 7.625,0 13.85,6.234 13.85,13.846 l 0,83.075 z"
         id="path4141" />
    </g>
  </g>
</svg>
