<?xml version="1.0" encoding="UTF-8" standalone="no"?>
<svg
   xmlns:dc="http://purl.org/dc/elements/1.1/"
   xmlns:cc="http://creativecommons.org/ns#"
   xmlns:rdf="http://www.w3.org/1999/02/22-rdf-syntax-ns#"
   xmlns:svg="http://www.w3.org/2000/svg"
   xmlns="http://www.w3.org/2000/svg"
   xmlns:sodipodi="http://sodipodi.sourceforge.net/DTD/sodipodi-0.dtd"
   xmlns:inkscape="http://www.inkscape.org/namespaces/inkscape"
   height="96"
   width="96"
   id="svg2"
   version="1.1"
   inkscape:version="0.91 r13725"
   sodipodi:docname="icon.svg"
   inkscape:export-filename="C:\Users\Maciej\Desktop\pluginLogo.png"
   inkscape:export-xdpi="67.5"
   inkscape:export-ydpi="67.5">
  <metadata
     id="metadata10">
    <rdf:RDF>
      <cc:Work
         rdf:about="">
        <dc:format>image/svg+xml</dc:format>
        <dc:type
           rdf:resource="http://purl.org/dc/dcmitype/StillImage" />
        <dc:title />
      </cc:Work>
    </rdf:RDF>
  </metadata>
  <defs
     id="defs8" />
  <sodipodi:namedview
     pagecolor="#ffffff"
     bordercolor="#666666"
     borderopacity="1"
     objecttolerance="10"
     gridtolerance="10"
     guidetolerance="10"
     inkscape:pageopacity="0"
     inkscape:pageshadow="2"
     inkscape:window-width="1920"
     inkscape:window-height="1017"
     id="namedview6"
     showgrid="false"
     inkscape:zoom="1.5652103"
     inkscape:cx="122.67687"
     inkscape:cy="-22.238228"
     inkscape:window-x="1272"
     inkscape:window-y="-8"
     inkscape:window-maximized="1"
     inkscape:current-layer="svg2" />
  <path
     sodipodi:nodetypes="csscccccssccssccsssccssssssssssss"
     d="m 63.977204,40.486515 0,-8.200496 c 0,-7.689667 -7.689665,-15.379346 -15.379332,-15.379346 l -5.126449,0 0,-10.2528852 -15.379346,15.3793342 15.379346,15.379345 0,-10.252897 5.126449,0 c 2.563218,0 5.126436,2.56323 5.126436,5.126449 l 0,8.200496 z m -46.13801,-28.70628 c -5.687154,0 -10.2528959,4.565745 -10.2528959,10.252887 0,3.764734 2.0826157,7.048868 5.1264489,8.811079 l 0,33.562209 c -3.0438332,1.762211 -5.1264489,5.046344 -5.1264489,8.811079 0,5.687155 4.5657419,10.252898 10.2528959,10.252898 5.687142,0 10.252883,-4.565743 10.252883,-10.252898 0,-3.764735 -2.082615,-7.048868 -5.126435,-8.811079 l 0,-33.562209 c 3.04382,-1.762211 5.126435,-5.046345 5.126435,-8.811079 0,-5.687142 -4.565741,-10.252887 -10.252883,-10.252887 z m 0,66.643794 c -2.803531,0 -5.126447,-2.322918 -5.126447,-5.126435 0,-2.803532 2.322916,-5.126449 5.126447,-5.126449 2.803519,0 5.126448,2.322917 5.126448,5.126449 0,2.803517 -2.322929,5.126435 -5.126448,5.126435 z m 0,-51.264459 c -2.803531,0 -5.126447,-2.322918 -5.126447,-5.126448 0,-2.80352 2.322916,-5.126449 5.126447,-5.126449 2.803519,0 5.126448,2.322929 5.126448,5.126449 0,2.80353 -2.322929,5.126448 -5.126448,5.126448 z"
     id="path4"
     inkscape:connector-curvature="0" />
  <path
     style="fill:#000000"
     d="m 47.959367,42.508093 a 5.1418959,5.1418959 0 0 0 -0.04297,0.002 c -7.014555,0.05951 -12.831787,5.175796 -13.9375,12.029297 a 5.1418959,5.1418959 0 0 0 -0.02148,0.148438 c -0.434041,3.296083 -0.116963,5.992731 -0.1875,8.003906 a 5.1418959,5.1418959 0 0 0 -0.002,0.30664 c 0.05858,2.394731 -0.157998,5.23725 0.111328,8.488282 a 5.1418959,5.1418959 0 0 0 0.02148,0.210937 c 0.86467,6.948506 6.581549,12.287146 13.642578,12.53125 a 5.1418959,5.1418959 0 0 0 0.152344,0.002 c 5.132578,0.02595 10.236979,0.0098 15.328125,0.01172 2.923869,2.415407 5.864055,4.885437 8.912109,7.330078 0,0 0.002,0.002 0.002,0.002 1.671732,1.348206 3.610025,1.713626 5.537109,1.277346 1.927581,-0.436391 4.098671,-2.196295 4.699219,-4.54883 a 5.1418959,5.1418959 0 0 0 0.0293,-0.117188 c 0.591784,-2.56946 0.328109,-4.170569 0.283203,-4.953124 4.569039,-1.818806 7.980144,-5.944051 8.800781,-11.023438 a 5.1418959,5.1418959 0 0 0 0.02148,-0.148438 c 0.433754,-3.295861 0.116906,-5.993226 0.1875,-8.003906 a 5.1418959,5.1418959 0 0 0 0.002,-0.30664 c -0.05856,-2.395229 0.157437,-5.237857 -0.111328,-8.488282 a 5.1418959,5.1418959 0 0 0 -0.02148,-0.208984 C 90.501933,48.104033 84.784248,42.765232 77.723039,42.521765 a 5.1418959,5.1418959 0 0 0 -0.164063,-0.0039 c -9.87743,-0.02666 -19.744429,-0.0087 -29.599609,-0.0098 z m 0.234375,5.402344 28.878906,0 c 4.963672,0 9.023438,4.095266 9.023438,9.099609 l 0,12.736328 c 0,5.002127 -4.059766,9.097657 -9.023438,9.097657 l 0,7.277343 c 0,1.500912 -0.94102,1.94912 -2.091797,0.998047 l -10.009765,-8.27539 -16.777344,0 c -4.963933,0 -9.023437,-4.09553 -9.023437,-9.097657 l 0,-12.736328 c 0,-5.004473 4.059504,-9.099609 9.023437,-9.099609 z m 13.537109,2.707031 c -0.991744,0 -1.804687,0.812554 -1.804687,1.804688 l 0,10.830078 c 0,0.994481 0.813074,1.804687 1.804687,1.804687 l 1.804688,0 c 0.993959,0 1.804687,-0.810206 1.804687,-1.804687 l 0,-10.830078 c 0,-0.992265 -0.810728,-1.804688 -1.804687,-1.804688 l -1.804688,0 z m 0,18.050781 c -0.991744,0 -1.804687,0.810338 -1.804687,1.804688 l 0,3.609375 c 0,0.993829 0.813074,1.804687 1.804687,1.804687 l 1.804688,0 c 0.993959,0 1.804687,-0.810858 1.804687,-1.804687 l 0,-3.609375 c 0,-0.99435 -0.810728,-1.804688 -1.804687,-1.804688 l -1.804688,0 z"
     id="path4161"
     inkscape:connector-curvature="0" />
  <g
     id="g4169"
     transform="matrix(0.13563685,0,0,0.13563685,28.71927,35.971694)"
     style="fill:#ffffff;fill-opacity:1" />
</svg>
